<?xml version="1.0" encoding="iso-8859-1"?>
<!-- Generator: Adobe Illustrator 19.0.0, SVG Export Plug-In . SVG Version: 6.00 Build 0)  -->
<svg version="1.1" id="Layer_1" xmlns="http://www.w3.org/2000/svg" xmlns:xlink="http://www.w3.org/1999/xlink" x="0px" y="0px"
	 viewBox="0 0 472.615 472.615" style="enable-background:new 0 0 472.615 472.615;" xml:space="preserve" fill="#ffffff">
<g>
	<g>
		<circle cx="204.002" cy="183.237" r="49.063"/>
	</g>
</g>
<g>
	<g>
		<path d="M391.799,181.04C390.449,80.923,307.79,0,206.418,0C104.179,0,21.038,82.273,21.038,182.584
			c-0.193,2.603-5.691,64.912,38.773,128.184c19.002,27.2,31.444,53.242,37.714,79.574c4.244,17.843,7.426,48.418,7.426,72.628
			v9.645h214.799v-96.452h77.162v-86.807h54.978L391.799,181.04z M329.395,199.588l-29.642,4.941
			c-2.505,11.305-6.973,21.85-13.007,31.318l17.489,24.485l-23.13,23.129l-24.484-17.489c-9.468,6.034-20.012,10.502-31.318,13.007
			l-4.941,29.643h-32.71l-4.941-29.643c-11.305-2.505-21.85-6.973-31.318-13.007l-24.484,17.489l-23.13-23.129l17.489-24.485
			c-6.034-9.468-10.502-20.012-13.007-31.318l-29.642-4.941v-32.71l29.642-4.94c2.505-11.305,6.973-21.851,13.007-31.319
			l-17.489-24.484l23.13-23.13l24.484,17.49c9.468-6.035,20.012-10.503,31.318-13.007l4.941-29.643h32.71l4.941,29.643
			c11.305,2.504,21.85,6.972,31.318,13.007l24.484-17.49l23.13,23.13l-17.489,24.484c6.033,9.468,10.502,20.013,13.007,31.319
			l29.642,4.94V199.588z"/>
	</g>
</g>
</svg>
